<svg xmlns="http://www.w3.org/2000/svg" xmlns:xlink="http://www.w3.org/1999/xlink" width="99" height="99" viewBox="0 0 99 99"><defs><path id="b" d="M310.17 2772.23a49.23 49.23 0 1 1 98.46 0 49.23 49.23 0 0 1-98.46 0z"/><path id="c" d="M403.97 2772.65l-15.42 37.73-8.15-19.26 7.43-18.17h-4.02l-6.06 15.11-6-15.1h-3.95l7.43 18.16-8.1 19.26-15.47-37.73-7.77-18.31 8-19.26 15.42 37.73h4.55l-18.05-42.58h-3.72l-8.94 20.9-9-20.9h-3.66l-18 42.58h4.5l15.48-37.73 8.1 19.26-7.43 18.18h3.95l6-15.12 6.06 15.25 18 42.6h3.66l9-21.07 8.94 21.07h3.72l18.05-42.6h-4.55z"/><path id="e" d="M363 2791.46c-1.18.28-2.38.42-3.6.42-8.58 0-15.89-6.54-16.41-16.25.12-1.85.42-3.69.88-5.49l-13.33-5.6a34.3 34.3 0 0 0-2.09 11.85c0 16.64 14.26 30.13 30.9 30.13 3.84 0 7.64-.76 11.2-2.2z"/><path id="g" d="M359.4 2744.54c-4.33 0-8.6.92-12.54 2.72l7.48 12.71c1.63-.56 3.34-.85 5.06-.85 7.6 0 15.66 6.37 16.43 14.22l-21.62.1 33.71 14.33a30.77 30.77 0 0 0 2.34-12.8c0-16.58-14.22-30.43-30.86-30.43z"/><path id="h" d="M363 2788.17c-1.18.27-2.38.41-3.6.41-8.58 0-15.89-6.54-16.41-16.24.12-1.86.42-3.7.88-5.5l-13.33-5.66a34.3 34.3 0 0 0-2.09 11.85c0 16.64 14.26 30.14 30.9 30.14 3.84 0 7.63-.72 11.2-2.14zM346.87 2744l7.47 12.71c1.63-.56 3.34-.85 5.06-.85 7.6 0 15.67 6.37 16.43 14.22l-21.61.1 33.7 14.35a30.77 30.77 0 0 0 2.35-12.8c0-16.71-14.22-30.45-30.87-30.45-4.32 0-8.6.92-12.53 2.72z"/><linearGradient id="a" x1="391.38" x2="301.82" y1="2725.15" y2="2856.97" gradientUnits="userSpaceOnUse"><stop offset="0" stop-color="#1abc9c"/><stop offset="1" stop-color="#1a5daf"/></linearGradient><linearGradient id="d" x1="1858.45" x2="1484.33" y1="2905.59" y2="5423.13" gradientUnits="userSpaceOnUse"><stop offset="0" stop-color="#1abc9c"/><stop offset="1" stop-color="#1a5daf"/></linearGradient><linearGradient id="f" x1="2324.33" x2="1940.6" y1="2952.04" y2="5544.55" gradientUnits="userSpaceOnUse"><stop offset="0" stop-color="#1abc9c"/><stop offset="1" stop-color="#1a5daf"/></linearGradient></defs><use fill="url(#a)" xlink:href="#b" transform="translate(-310 -2723)"/><use fill="#fff" xlink:href="#c" opacity=".2" transform="translate(-310 -2723)"/><use fill="url(#d)" xlink:href="#e" transform="translate(-310 -2723)"/><use fill="url(#f)" xlink:href="#g" transform="translate(-310 -2723)"/><use fill="#fff" xlink:href="#h" transform="translate(-310 -2723)"/></svg>