<svg xmlns="http://www.w3.org/2000/svg" xmlns:xlink="http://www.w3.org/1999/xlink" width="236" height="688" viewBox="0 0 236 688"><defs><path id="a" d="M876 2500.77s.57 3.06 23.26 3.06c12.15 0 55.67 1.82 96.3.5 10-.33 15.44-3.56 15.44-3.56L943.5 2462z"/><path id="b" d="M944 2061l-67 38.62V2502h134v-402.37L944 2061"/><path id="e" d="M876 2501h135.17l98.83 120H935.3L876 2501"/><path id="f" d="M936 2708h174v-87H936z"/><mask id="d" width="1.96" height="1.86" x="-.98" y="-.93"><path fill="#fff" d="M879 2465h129v36.81H879z"/><use xlink:href="#a"/></mask><filter id="c" width="159" height="71.81" x="864" y="2445" filterUnits="userSpaceOnUse"><feOffset dy="-5" in="SourceGraphic" result="FeOffset1250Out"/><feGaussianBlur in="FeOffset1250Out" result="FeGaussianBlur1251Out" stdDeviation="2 2"/></filter></defs><use fill="#30434f" xlink:href="#b" transform="translate(-876 -2061)"/><g transform="translate(-876 -2061)"><g filter="url(#c)"><use fill="none" stroke-opacity=".5" stroke-width="-6" mask="url(&amp;quot;#d&amp;quot;)" xlink:href="#a"/><use fill="#27363f" fill-opacity=".5" xlink:href="#a"/></g><use fill="#9b9b9b" xlink:href="#a"/></g><use fill="#777" xlink:href="#e" transform="translate(-876 -2061)"/><use fill="#9b9b9b" xlink:href="#f" transform="translate(-876 -2061)"/><text dominant-baseline="text-before-edge" font-family="Helvetica, Arial, sans-serif" transform="translate(38 352)" fill="#fff" font-size="30" font-style="none" font-weight="700" style="font-kerning:normal"><tspan>0 %</tspan></text><text dominant-baseline="text-before-edge" font-family="Helvetica, Arial, sans-serif" transform="translate(58 663)" fill="#fff" font-size="25" font-style="none" font-weight="700" style="font-kerning:normal"><tspan>12000 - 15000</tspan></text></svg>