<svg xmlns="http://www.w3.org/2000/svg" xmlns:xlink="http://www.w3.org/1999/xlink" width="197" height="688" viewBox="0 0 197 688"><defs><path id="vgxza" d="M721 2476.7v24.3h135v-24.3l-67.5-38.7z"/><path id="vgxzb" d="M788.5 2061l-66.5 38.62V2502h133v-402.37L788.5 2061"/><path id="vgxze" d="M721 2501h135.53L916 2621H740.82L721 2501"/><path id="vgxzf" d="M741 2708h174v-87H741z"/><mask id="vgxzd" width="1.96" height="1.9" x="-.98" y="-.95"><path fill="#fff" d="M724 2441h129v57H724z"/><use xlink:href="#vgxza"/></mask><filter id="vgxzc" width="159" height="92" x="709" y="2421" filterUnits="userSpaceOnUse"><feOffset dy="-5" in="SourceGraphic" result="FeOffset1205Out"/><feGaussianBlur in="FeOffset1205Out" result="FeGaussianBlur1206Out" stdDeviation="2 2"/></filter></defs><g><g transform="translate(-719 -2061)"><use fill="#30434f" xlink:href="#vgxzb"/></g><g transform="translate(-719 -2061)"><g filter="url(#vgxzc)"><use fill="none" stroke-opacity=".5" stroke-width="-6" mask="url(&quot;#vgxzd&quot;)" xlink:href="#vgxza"/><use fill="#27363f" fill-opacity=".5" xlink:href="#vgxza"/></g><use fill="#7cb342" xlink:href="#vgxza"/></g><g transform="translate(-719 -2061)"><use fill="#558b2f" xlink:href="#vgxze"/></g><g transform="translate(-719 -2061)"><use fill="#7cb342" xlink:href="#vgxzf"/></g><g transform="translate(-719 -2061)"><g fill="#fff" font-family="'Montserrat','Montserrat-Bold'" font-size="30" font-style="none" font-weight="700" style="font-kerning:normal"><text dominant-baseline="text-before-edge" font-family="Helvetica, Arial, sans-serif" transform="translate(750 2389)"><tspan>15 %</tspan></text></g></g><g transform="translate(-719 -2061)"><g fill="#fff" font-family="'Montserrat','Montserrat-Bold'" font-size="25" font-style="none" font-weight="700" style="font-kerning:normal"><text dominant-baseline="text-before-edge" font-family="Helvetica, Arial, sans-serif" transform="translate(746 2724)"><tspan>8001 - 12000</tspan></text></g></g></g></svg>