<svg xmlns="http://www.w3.org/2000/svg" xmlns:xlink="http://www.w3.org/1999/xlink" width="236" height="688" viewBox="0 0 236 688"><defs><path id="pbowa" d="M876 2500.77s.57 3.06 23.26 3.06c12.15 0 55.67 1.82 96.3.5 10-.33 15.44-3.56 15.44-3.56L943.5 2462z"/><path id="pbowb" d="M944 2061l-67 38.62V2502h134v-402.37L944 2061"/><path id="pbowe" d="M876 2501h135.17l98.83 120H935.3L876 2501"/><path id="pbowf" d="M936 2708h174v-87H936z"/><mask id="pbowd" width="1.96" height="1.86" x="-.98" y="-.93"><path fill="#fff" d="M879 2465h129v36.81H879z"/><use xlink:href="#pbowa"/></mask><filter id="pbowc" width="159" height="71.81" x="864" y="2445" filterUnits="userSpaceOnUse"><feOffset dy="-5" in="SourceGraphic" result="FeOffset1250Out"/><feGaussianBlur in="FeOffset1250Out" result="FeGaussianBlur1251Out" stdDeviation="2 2"/></filter></defs><g><g transform="translate(-876 -2061)"><use fill="#30434f" xlink:href="#pbowb"/></g><g transform="translate(-876 -2061)"><g filter="url(#pbowc)"><use fill="none" stroke-opacity=".5" stroke-width="-6" mask="url(&quot;#pbowd&quot;)" xlink:href="#pbowa"/><use fill="#27363f" fill-opacity=".5" xlink:href="#pbowa"/></g><use fill="#9b9b9b" xlink:href="#pbowa"/></g><g transform="translate(-876 -2061)"><use fill="#777" xlink:href="#pbowe"/></g><g transform="translate(-876 -2061)"><use fill="#9b9b9b" xlink:href="#pbowf"/></g><g transform="translate(-876 -2061)"><g fill="#fff" font-family="'Montserrat','Montserrat-Bold'" font-size="30" font-style="none" font-weight="700" style="font-kerning:normal"><text dominant-baseline="text-before-edge" font-family="Helvetica, Arial, sans-serif" transform="translate(914 2413)"><tspan>0 %</tspan></text></g></g><g transform="translate(-876 -2061)"><g fill="#fff" font-family="'Montserrat','Montserrat-Bold'" font-size="25" font-style="none" font-weight="700" style="font-kerning:normal"><text dominant-baseline="text-before-edge" font-family="Helvetica, Arial, sans-serif" transform="translate(934 2724)"><tspan>12000 - 15000</tspan></text></g></g></g></svg>