<svg xmlns="http://www.w3.org/2000/svg" xmlns:xlink="http://www.w3.org/1999/xlink" width="197" height="689" viewBox="0 0 197 689"><defs><path id="f8cfa" d="M419 2317.62V2501h135v-183.37L486.5 2279z"/><path id="f8cfb" d="M486.5 2060l-66.5 38.62V2501h133v-402.37L486.5 2060"/><path id="f8cfe" d="M554 2501H418.48L359 2621h175.18L554 2501"/><path id="f8cff" d="M360 2708h174v-87H360z"/><mask id="f8cfd" width="1.96" height="1.97" x="-.98" y="-.99"><path fill="#fff" d="M422 2282h129v216H422z"/><use xlink:href="#f8cfa"/></mask><filter id="f8cfc" width="159" height="251" x="407" y="2262" filterUnits="userSpaceOnUse"><feOffset dy="-5" in="SourceGraphic" result="FeOffset1115Out"/><feGaussianBlur in="FeOffset1115Out" result="FeGaussianBlur1116Out" stdDeviation="2 2"/></filter></defs><g><g transform="translate(-359 -2060)"><use fill="#30434f" xlink:href="#f8cfb"/></g><g transform="translate(-359 -2060)"><g filter="url(#f8cfc)"><use fill="none" stroke-width="-6" mask="url(&quot;#f8cfd&quot;)" xlink:href="#f8cfa"/><use fill="#27363f" xlink:href="#f8cfa"/></g><use fill="#1e9df2" xlink:href="#f8cfa"/></g><g transform="translate(-359 -2060)"><use fill="#1a84cb" xlink:href="#f8cfe"/></g><g transform="translate(-359 -2060)"><use fill="#1e9df2" xlink:href="#f8cff"/></g><g transform="translate(-359 -2060)"><g fill="#fff" font-family="'Montserrat','Montserrat-Bold'" font-size="30" font-style="none" font-weight="700" style="font-kerning:normal"><text dominant-baseline="text-before-edge" font-family="Helvetica, Arial, sans-serif" transform="translate(448 2229)"><tspan>30 %</tspan></text></g></g><g transform="translate(-359 -2060)"><g fill="#fff" font-family="'Montserrat','Montserrat-Bold'" font-size="25" font-style="none" font-weight="700" style="font-kerning:normal"><text dominant-baseline="text-before-edge" font-family="Helvetica, Arial, sans-serif" transform="translate(396 2724)"><tspan>0 - 4000</tspan></text></g></g></g></svg>