<svg xmlns="http://www.w3.org/2000/svg" xmlns:xlink="http://www.w3.org/1999/xlink" width="751" height="648" viewBox="0 0 751 648"><defs><path id="a" d="M876 2500.77s.57 3.06 23.26 3.06c12.15 0 55.67 1.82 96.3.5 10-.33 15.44-3.56 15.44-3.56L943.5 2462z"/><path id="b" d="M419 2317.62V2501h135v-183.37L486.5 2279z"/><path id="c" d="M571 2407.51V2501h134v-93.49L638 2369z"/><path id="d" d="M721 2476.7v24.3h135v-24.3l-67.5-38.7z"/><path id="e" d="M486.5 2060l-66.5 38.62V2501h133v-402.37L486.5 2060"/><path id="f" d="M638 2061l-66 38.62V2502h132v-402.37L638 2061"/><path id="g" d="M788.5 2061l-66.5 38.62V2502h133v-402.37L788.5 2061"/><path id="h" d="M944 2061l-67 38.62V2502h134v-402.37L944 2061"/><path id="q" d="M554 2501H418.48L359 2621h175.18L554 2501"/><path id="r" d="M876 2501h135.17l98.83 120H935.3L876 2501"/><path id="s" d="M721 2501h135.53L916 2621H740.82L721 2501"/><path id="t" d="M570.69 2501L551 2621h174l-19.69-120z"/><path id="u" d="M936 2708h174v-87H936z"/><path id="v" d="M360 2708h174v-87H360z"/><path id="w" d="M741 2708h174v-87H741z"/><path id="x" d="M551 2708h174v-87H551z"/><mask id="j" width="1.96" height="1.86" x="-.98" y="-.93"><path fill="#fff" d="M879 2465h129v36.81H879z"/><use xlink:href="#a"/></mask><filter id="i" width="159" height="71.81" x="864" y="2445" filterUnits="userSpaceOnUse"><feOffset dy="-5" in="SourceGraphic" result="FeOffset1162Out"/><feGaussianBlur in="FeOffset1162Out" result="FeGaussianBlur1163Out" stdDeviation="2 2"/></filter><mask id="l" width="1.96" height="1.97" x="-.98" y="-.99"><path fill="#fff" d="M422 2282h129v216H422z"/><use xlink:href="#b"/></mask><filter id="k" width="159" height="251" x="407" y="2262" filterUnits="userSpaceOnUse"><feOffset dy="-5" in="SourceGraphic" result="FeOffset1178Out"/><feGaussianBlur in="FeOffset1178Out" result="FeGaussianBlur1179Out" stdDeviation="2 2"/></filter><mask id="n" width="1.96" height="1.95" x="-.98" y="-.98"><path fill="#fff" d="M574 2372h128v126H574z"/><use xlink:href="#c"/></mask><filter id="m" width="158" height="161" x="559" y="2352" filterUnits="userSpaceOnUse"><feOffset dy="-5" in="SourceGraphic" result="FeOffset1194Out"/><feGaussianBlur in="FeOffset1194Out" result="FeGaussianBlur1195Out" stdDeviation="2 2"/></filter><mask id="p" width="1.96" height="1.9" x="-.98" y="-.95"><path fill="#fff" d="M724 2441h129v57H724z"/><use xlink:href="#d"/></mask><filter id="o" width="159" height="92" x="709" y="2421" filterUnits="userSpaceOnUse"><feOffset dy="-5" in="SourceGraphic" result="FeOffset1210Out"/><feGaussianBlur in="FeOffset1210Out" result="FeGaussianBlur1211Out" stdDeviation="2 2"/></filter></defs><use fill="#30434f" xlink:href="#e" transform="translate(-359 -2060)"/><use fill="#30434f" xlink:href="#f" transform="translate(-359 -2060)"/><use fill="#30434f" xlink:href="#g" transform="translate(-359 -2060)"/><use fill="#30434f" xlink:href="#h" transform="translate(-359 -2060)"/><g transform="translate(-359 -2060)"><g filter="url(#i)"><use fill="none" stroke-opacity=".5" stroke-width="-6" mask="url(&amp;quot;#j&amp;quot;)" xlink:href="#a"/><use fill="#27363f" fill-opacity=".5" xlink:href="#a"/></g><use fill="#9b9b9b" xlink:href="#a"/></g><g transform="translate(-359 -2060)"><g filter="url(#k)"><use fill="none" stroke-width="-6" mask="url(&amp;quot;#l&amp;quot;)" xlink:href="#b"/><use fill="#27363f" xlink:href="#b"/></g><use fill="#1e9df2" xlink:href="#b"/></g><g transform="translate(-359 -2060)"><g filter="url(#m)"><use fill="none" stroke-opacity=".5" stroke-width="-6" mask="url(&amp;quot;#n&amp;quot;)" xlink:href="#c"/><use fill="#27363f" fill-opacity=".5" xlink:href="#c"/></g><use fill="#ffbd4a" xlink:href="#c"/></g><g transform="translate(-359 -2060)"><g filter="url(#o)"><use fill="none" stroke-opacity=".5" stroke-width="-6" mask="url(&amp;quot;#p&amp;quot;)" xlink:href="#d"/><use fill="#27363f" fill-opacity=".5" xlink:href="#d"/></g><use fill="#7cb342" xlink:href="#d"/></g><use fill="#1a84cb" xlink:href="#q" transform="translate(-359 -2060)"/><use fill="#777" xlink:href="#r" transform="translate(-359 -2060)"/><use fill="#558b2f" xlink:href="#s" transform="translate(-359 -2060)"/><use fill="#c5933c" xlink:href="#t" transform="translate(-359 -2060)"/><use fill="#9b9b9b" xlink:href="#u" transform="translate(-359 -2060)"/><use fill="#1e9df2" xlink:href="#v" transform="translate(-359 -2060)"/><use fill="#7cb342" xlink:href="#w" transform="translate(-359 -2060)"/><use fill="#ffbd4a" xlink:href="#x" transform="translate(-359 -2060)"/></svg>