<svg xmlns="http://www.w3.org/2000/svg" xmlns:xlink="http://www.w3.org/1999/xlink" width="141" height="196" viewBox="0 0 141 196"><defs><path id="a" d="M1359.33 3529v21.67H1381V3529h21.67v22.68l6.43 1.02c6.52 1.1 10.92 3.26 15.23 5.41 4.32 2.16 7.66 6.52 9.82 10.84 2.16 4.31 3.05 9.73 3.05 16.25 0 7.57-2.16 13.29-5.42 17.6-3.26 4.32-8.67 8.6-16.25 11.85 9.73 2.16 16.25 6.35 21.67 12.87 4.31 6.51 7.78 14 7.78 22.68 0 7.57-1.14 13.2-4.4 18.62a45.87 45.87 0 0 1-11.85 12.86 82.4 82.4 0 0 1-17.26 7.79c-2.8.46-5.93.63-8.8 1.01v22.69H1381v-21.67h-21.67v21.67h-21.66v-21.67H1316v-140.83h21.67V3529zm-10.83 75.83h34.53c6.52 0 10.92-1.14 15.24-4.4 4.31-2.16 5.41-6.35 5.41-12.86 0-3.26-.93-5.63-2.03-7.79-1.1-2.16-3.26-2.96-5.42-4.06-2.15-1.1-4.52-2.37-7.78-2.37-2.16-1.1-5.2-1.02-8.47-1.02h-31.48zm0 65h36.9c3.26 0 7.58.09 10.83-1.01 3.26-1.1 6.31-2.29 8.47-3.39 2.16-1.1 4.61-3.17 6.77-6.43 1.1-2.16 2.03-6.56 2.03-9.82 0-7.57-2.03-14-7.45-17.26a37.85 37.85 0 0 0-19.63-5.42h-37.92z"/><mask id="c" width="2" height="2" x="-1" y="-1"><path fill="#fff" d="M1316 3529h128.98v184.17H1316z"/><use xlink:href="#a"/></mask><filter id="b" width="158.98" height="218.17" x="1301" y="3519" filterUnits="userSpaceOnUse"><feOffset dy="4" in="SourceGraphic" result="FeOffset1063Out"/><feGaussianBlur in="FeOffset1063Out" result="FeGaussianBlur1064Out" stdDeviation="2 2"/></filter></defs><g transform="translate(-1310 -3527)"><g filter="url(#b)"><use fill="none" stroke-opacity=".5" stroke-width="0" mask="url(&amp;quot;#c&amp;quot;)" xlink:href="#a"/><use fill-opacity=".5" xlink:href="#a"/></g><use fill="#ddd" xlink:href="#a"/><use fill="#fff" fill-opacity="0" stroke="#286892" stroke-miterlimit="50" stroke-width="2" xlink:href="#a"/></g></svg>