<svg xmlns="http://www.w3.org/2000/svg" xmlns:xlink="http://www.w3.org/1999/xlink" width="24" height="24" viewBox="0 0 24 24"><defs><path id="a" d="M446 3151c-6.62 0-12-5.38-12-12s5.38-12 12-12 12 5.38 12 12-5.38 12-12 12zm0-23.23a11.24 11.24 0 0 0-11.23 11.23 11.24 11.24 0 0 0 22.45 0c0-6.19-5.03-11.23-11.22-11.23z"/><path id="b" d="M443.8 3144.1l-4.27-4.26.55-.54 3.73 3.7 8.12-8.06.55.54z"/></defs><use fill="#fff" xlink:href="#a" transform="translate(-434 -3127)"/><use fill="#fff" xlink:href="#b" transform="translate(-434 -3127)"/></svg>