<svg xmlns="http://www.w3.org/2000/svg" xmlns:xlink="http://www.w3.org/1999/xlink" width="44" height="44" viewBox="0 0 44 44"><defs><path id="a" d="M1186 1693a22 22 0 1 1 44 0 22 22 0 0 1-44 0z"/><path id="b" d="M1189 1693c0-10.48 8.52-19 19-19s19 8.52 19 19-8.52 19-19 19-19-8.52-19-19zm1.54 0c0 9.63 7.83 17.46 17.46 17.46s17.46-7.83 17.46-17.46-7.83-17.46-17.46-17.46a17.48 17.48 0 0 0-17.46 17.46z"/><path id="c" d="M1211.95 1692.43l-6.32-3.67c-.58-.33-1.04-.06-1.04.6l.03 7.29c0 .66.48.93 1.05.6l6.28-3.6c.58-.34.58-.88 0-1.22z"/></defs><use fill="#fff" xlink:href="#a" transform="translate(-1186 -1671)"/><use fill="#1e9df2" xlink:href="#b" transform="translate(-1186 -1671)"/><use fill="#1e9df2" xlink:href="#c" transform="translate(-1186 -1671)"/></svg>