<svg xmlns="http://www.w3.org/2000/svg" xmlns:xlink="http://www.w3.org/1999/xlink" width="89" height="30" viewBox="0 0 89 30"><defs><path id="b3swa" d="M580 3035c0-8.28 6.57-15 14.68-15 7 0 12.85 5.01 14.32 11.72h-3.68a11.16 11.16 0 0 0-10.65-8.09 11.24 11.24 0 0 0-11.12 11.36c0 6.28 4.98 11.37 11.12 11.37 5.02 0 9.27-3.4 10.65-8.08H609a14.76 14.76 0 0 1-14.32 11.72c-8.11 0-14.68-6.72-14.68-15z"/><path id="b3swb" d="M591 3033.5a3.5 3.5 0 1 1 7 0 3.5 3.5 0 0 1-7 0z"/><path id="b3swc" d="M593 3041v-5h3v5z"/><path id="b3swd" d="M627.26 3032.92c-1.19-1.54-3.12-2.43-5.54-2.43-3.98 0-6.72 2.73-6.72 6.78 0 4 2.72 6.73 6.67 6.73 2.6 0 4.57-1 5.74-2.68l-2-1.67c-.8 1.05-2.03 1.57-3.56 1.57-2.13 0-3.61-1.6-3.61-3.98 0-2.33 1.48-3.92 3.6-3.92 1.46 0 2.63.55 3.47 1.47zm2.77-6.13c0 1.04.71 1.79 1.73 1.79 1 0 1.73-.75 1.73-1.8 0-1.03-.72-1.78-1.73-1.78-1.02 0-1.73.75-1.73 1.79zm.12 17.09h3.21v-13.3h-3.21zm10.26 0h3.3l5.05-13.3h-3.24l-3.38 10.12-3.46-10.11-3.37.02zm10.08-17.1c0 1.05.72 1.8 1.73 1.8s1.73-.75 1.73-1.8c0-1.03-.72-1.78-1.73-1.78s-1.73.75-1.73 1.79zm.12 17.1h3.22v-13.3h-3.22zm18.24-10.96c-1.18-1.54-3.11-2.43-5.53-2.43-3.98 0-6.73 2.73-6.73 6.78 0 4 2.72 6.73 6.68 6.73 2.6 0 4.57-1 5.73-2.68l-2-1.67c-.8 1.05-2.03 1.57-3.56 1.57-2.13 0-3.6-1.6-3.6-3.98 0-2.33 1.47-3.92 3.6-3.92 1.46 0 2.62.55 3.46 1.47z"/></defs><g><g transform="translate(-580 -3020)"><use fill="#00b13f" xlink:href="#b3swa"/></g><g transform="translate(-580 -3020)"><use fill="#00b13f" xlink:href="#b3swb"/></g><g transform="translate(-580 -3020)"><use fill="#00b13f" xlink:href="#b3swc"/></g><g transform="translate(-580 -3020)"><use fill="#fff" xlink:href="#b3swd"/></g></g></svg>