<svg xmlns="http://www.w3.org/2000/svg" xmlns:xlink="http://www.w3.org/1999/xlink" width="62" height="65" viewBox="0 0 62 65"><defs><path id="ngjca" d="M93.2 41.33c0-5.29-4.12-7.6-8.02-7.6-3.9 0-8.01 2.31-8.01 7.6v12.2c0 5.3 4.11 7.62 8.01 7.62 3.9 0 8.02-2.32 8.02-7.61zM71.2 53.53v-12.2c0-8.15 5.62-13.33 13.97-13.33 8.35 0 13.97 5.18 13.97 13.33v12.2c0 8.16-5.62 13.34-13.97 13.34-8.35 0-13.97-5.18-13.97-13.33zM133 66.34h-5.96l-16.03-27.1v27.1h-5.96V28.54h5.96l16.03 27.1v-27.1H133zm-.12 7.02v4.86H71v-4.86zm-58.5 15.6c.86 0 1.26-.63 1.26-1.24s-.4-1.24-1.26-1.24h-1.77v2.48zm-1.77 1.5v2.44h-1.57v-7.92h3.34c1.94 0 2.82 1.29 2.82 2.74 0 1.43-.88 2.75-2.82 2.75zm14.61.93h3.41v1.5h-4.97v-7.91h1.56zm15.72-1.53zm0 0l-.91-2.56-.91 2.56zm.54 1.44h-2.9l-.58 1.6h-1.63l2.91-7.92h1.5l2.91 7.92h-1.63l-.58-1.6zm15.78-1.05c-.07 1.66-1.18 2.76-3.08 2.76-1.96 0-3.08-1.18-3.08-2.93v-2.29c0-1.75 1.12-2.93 3.08-2.93 1.9 0 3.01 1.1 3.08 2.76h-1.57c-.08-.8-.71-1.25-1.5-1.25-.86 0-1.52.5-1.52 1.42v2.29c0 .92.66 1.43 1.51 1.43.8 0 1.43-.45 1.5-1.26zm10.17-3.77v1.67h2.59v1.5h-2.6v1.74h3.41v1.5h-4.97v-7.91h4.97v1.5h-3.4z"/><path id="ngjcb" d="M75 35.38L79.44 33 96 59.62 91.56 62z"/></defs><g><g transform="translate(-71 -28)"><use fill="#1e9df2" xlink:href="#ngjca"/></g><g transform="translate(-71 -28)"><use fill="#1e9df2" xlink:href="#ngjcb"/></g></g></svg>