<svg xmlns="http://www.w3.org/2000/svg" xmlns:xlink="http://www.w3.org/1999/xlink" width="24" height="24" viewBox="0 0 24 24"><defs><path id="a9y6a" d="M406 614c-6.62 0-12-5.38-12-12s5.38-12 12-12 12 5.38 12 12-5.38 12-12 12zm0-23.23A11.24 11.24 0 0 0 394.77 602a11.24 11.24 0 0 0 22.45 0c0-6.19-5.03-11.23-11.22-11.23z"/><path id="a9y6b" d="M403.8 607.1l-4.27-4.26.55-.54 3.73 3.7 8.12-8.06.55.54z"/></defs><g><g transform="translate(-394 -590)"><use fill="#030303" xlink:href="#a9y6a"/></g><g transform="translate(-394 -590)"><use fill="#030303" xlink:href="#a9y6b"/></g></g></svg>